<svg width="42" height="42" viewBox="0 0 42 42" fill="none" xmlns="http://www.w3.org/2000/svg">
<rect width="42" height="42" rx="8" fill="#5E81F4" fill-opacity="0.1"/>
<path d="M22.8297 28.9993C22.6803 28.9998 22.5327 28.9668 22.3977 28.9028C22.2627 28.8388 22.1438 28.7453 22.0497 28.6293L17.2197 22.6293C17.0726 22.4504 16.9922 22.2259 16.9922 21.9943C16.9922 21.7627 17.0726 21.5382 17.2197 21.3593L22.2197 15.3593C22.3894 15.1551 22.6333 15.0267 22.8978 15.0023C23.1622 14.9779 23.4255 15.0596 23.6297 15.2293C23.8339 15.399 23.9623 15.6429 23.9867 15.9074C24.0111 16.1718 23.9294 16.4351 23.7597 16.6393L19.2897 21.9993L23.6097 27.3593C23.732 27.5061 23.8096 27.6848 23.8335 27.8744C23.8574 28.0639 23.8265 28.2563 23.7444 28.4289C23.6624 28.6014 23.5326 28.7468 23.3705 28.8479C23.2084 28.949 23.0207 29.0015 22.8297 28.9993Z" fill="black"/>
</svg>
