<svg width="11" height="16" viewBox="0 0 11 16" fill="none" xmlns="http://www.w3.org/2000/svg">
<g clip-path="url(#clip0_13017_11707)">
<path d="M4.93476 15.0368C0.772578 9.00284 0 8.38358 0 6.16602C0 3.12844 2.46242 0.666016 5.5 0.666016C8.53758 0.666016 11 3.12844 11 6.16602C11 8.38358 10.2274 9.00284 6.06524 15.0368C5.7921 15.4313 5.20787 15.4313 4.93476 15.0368ZM5.5 8.45768C6.76566 8.45768 7.79167 7.43167 7.79167 6.16602C7.79167 4.90036 6.76566 3.87435 5.5 3.87435C4.23434 3.87435 3.20833 4.90036 3.20833 6.16602C3.20833 7.43167 4.23434 8.45768 5.5 8.45768Z" fill="#1B51E5"/>
</g>
<defs>
<clipPath id="clip0_13017_11707">
<rect width="11" height="14.6667" fill="white" transform="translate(0 0.666016)"/>
</clipPath>
</defs>
</svg>
