<svg width="66" height="192" viewBox="0 0 66 192" fill="none" xmlns="http://www.w3.org/2000/svg">
<g filter="url(#filter0_d_13167_12042)">
<rect width="60" height="188" transform="translate(6 2)" fill="white"/>
<path d="M29.2741 78.7754C29.0423 79.0067 28.8585 79.2814 28.733 79.5839C28.6075 79.8863 28.543 80.2105 28.543 80.5379C28.543 80.8653 28.6075 81.1895 28.733 81.492C28.8585 81.7944 29.0423 82.0691 29.2741 82.3004L38.9741 92.0004L29.2741 101.7C28.8066 102.168 28.544 102.802 28.544 103.463C28.544 104.124 28.8066 104.758 29.2741 105.225C29.7415 105.693 30.3755 105.955 31.0366 105.955C31.6976 105.955 32.3316 105.693 32.7991 105.225L44.2741 93.7504C44.5058 93.5191 44.6897 93.2444 44.8152 92.942C44.9406 92.6395 45.0052 92.3153 45.0052 91.9879C45.0052 91.6605 44.9406 91.3363 44.8152 91.0339C44.6897 90.7314 44.5058 90.4567 44.2741 90.2254L32.7991 78.7504C31.8491 77.8004 30.2491 77.8004 29.2741 78.7754Z" fill="#5E81F4"/>
</g>
<defs>
<filter id="filter0_d_13167_12042" x="0" y="0" width="66" height="192" filterUnits="userSpaceOnUse" color-interpolation-filters="sRGB">
<feFlood flood-opacity="0" result="BackgroundImageFix"/>
<feColorMatrix in="SourceAlpha" type="matrix" values="0 0 0 0 0 0 0 0 0 0 0 0 0 0 0 0 0 0 127 0" result="hardAlpha"/>
<feMorphology radius="6" operator="erode" in="SourceAlpha" result="effect1_dropShadow_13167_12042"/>
<feOffset dx="-4"/>
<feGaussianBlur stdDeviation="4"/>
<feComposite in2="hardAlpha" operator="out"/>
<feColorMatrix type="matrix" values="0 0 0 0 0 0 0 0 0 0 0 0 0 0 0 0 0 0 0.25 0"/>
<feBlend mode="normal" in2="BackgroundImageFix" result="effect1_dropShadow_13167_12042"/>
<feBlend mode="normal" in="SourceGraphic" in2="effect1_dropShadow_13167_12042" result="shape"/>
</filter>
</defs>
</svg>
