<svg width="30" height="29" viewBox="0 0 30 29" fill="none" xmlns="http://www.w3.org/2000/svg">
<path d="M29.4845 13.5738C29.4845 20.6168 22.9588 26.3262 14.9102 26.3262C13.4667 26.3282 12.0292 26.1408 10.6345 25.7688C9.57055 26.308 7.12754 27.3428 3.0176 28.0169C2.65324 28.0752 2.37633 27.6962 2.52025 27.3574C3.16517 25.8344 3.74814 23.8049 3.92303 21.954C1.69134 19.7132 0.335938 16.7801 0.335938 13.5738C0.335938 6.53075 6.86156 0.821289 14.9102 0.821289C22.9588 0.821289 29.4845 6.53075 29.4845 13.5738ZM8.53396 8.10842C8.29237 8.10842 8.06069 8.20439 7.88986 8.37521C7.71904 8.54604 7.62307 8.77773 7.62307 9.01931C7.62307 9.26089 7.71904 9.49258 7.88986 9.66341C8.06069 9.83423 8.29237 9.9302 8.53396 9.9302H21.2864C21.528 9.9302 21.7597 9.83423 21.9305 9.66341C22.1014 9.49258 22.1973 9.26089 22.1973 9.01931C22.1973 8.77773 22.1014 8.54604 21.9305 8.37521C21.7597 8.20439 21.528 8.10842 21.2864 8.10842H8.53396ZM8.53396 12.6629C8.29237 12.6629 8.06069 12.7588 7.88986 12.9297C7.71904 13.1005 7.62307 13.3322 7.62307 13.5738C7.62307 13.8153 7.71904 14.047 7.88986 14.2179C8.06069 14.3887 8.29237 14.4847 8.53396 14.4847H21.2864C21.528 14.4847 21.7597 14.3887 21.9305 14.2179C22.1014 14.047 22.1973 13.8153 22.1973 13.5738C22.1973 13.3322 22.1014 13.1005 21.9305 12.9297C21.7597 12.7588 21.528 12.6629 21.2864 12.6629H8.53396ZM8.53396 17.2173C8.29237 17.2173 8.06069 17.3133 7.88986 17.4841C7.71904 17.6549 7.62307 17.8866 7.62307 18.1282C7.62307 18.3698 7.71904 18.6015 7.88986 18.7723C8.06069 18.9431 8.29237 19.0391 8.53396 19.0391H15.8211C16.0627 19.0391 16.2944 18.9431 16.4652 18.7723C16.636 18.6015 16.732 18.3698 16.732 18.1282C16.732 17.8866 16.636 17.6549 16.4652 17.4841C16.2944 17.3133 16.0627 17.2173 15.8211 17.2173H8.53396Z" fill="#5E81F4"/>
</svg>
