<svg width="14" height="14" viewBox="0 0 14 14" fill="none" xmlns="http://www.w3.org/2000/svg">
<path d="M9.61114 3.15457L10.8466 4.38948L9.61114 3.15457ZM10.4056 2.06665L7.06489 5.4074C6.89227 5.57977 6.77455 5.79939 6.72655 6.03857L6.41797 7.58323L7.96264 7.27407C8.2018 7.22623 8.42114 7.10898 8.5938 6.93632L11.9346 3.59557C12.0349 3.49518 12.1146 3.376 12.1689 3.24483C12.2232 3.11366 12.2512 2.97308 12.2512 2.83111C12.2512 2.68913 12.2232 2.54855 12.1689 2.41739C12.1146 2.28622 12.0349 2.16704 11.9346 2.06665C11.8342 1.96626 11.715 1.88663 11.5838 1.83229C11.4526 1.77796 11.3121 1.75 11.1701 1.75C11.0281 1.75 10.8875 1.77796 10.7564 1.83229C10.6252 1.88663 10.506 1.96626 10.4056 2.06665V2.06665Z" stroke="#1C1D21" stroke-linecap="round" stroke-linejoin="round"/>
<path d="M11.084 8.74935V10.4993C11.084 10.8088 10.9611 11.1055 10.7423 11.3243C10.5235 11.5431 10.2267 11.666 9.91732 11.666H3.50065C3.19123 11.666 2.89449 11.5431 2.67569 11.3243C2.4569 11.1055 2.33398 10.8088 2.33398 10.4993V4.08268C2.33398 3.77326 2.4569 3.47652 2.67569 3.25772C2.89449 3.03893 3.19123 2.91602 3.50065 2.91602H5.25065" stroke="#1C1D21" stroke-linecap="round" stroke-linejoin="round"/>
</svg>
