<svg width="16" height="16" viewBox="0 0 16 16" fill="none" xmlns="http://www.w3.org/2000/svg">
<path d="M8.33268 14.666C6.30602 14.666 4.66602 13.026 4.66602 10.9993L4.66602 3.99935C4.66602 2.52602 5.85935 1.33268 7.33268 1.33268C8.80602 1.33268 9.99935 2.52602 9.99935 3.99935V9.66602C9.99935 10.108 9.82375 10.532 9.51119 10.8445C9.19863 11.1571 8.77471 11.3327 8.33268 11.3327C7.89065 11.3327 7.46673 11.1571 7.15417 10.8445C6.84161 10.532 6.66602 10.108 6.66602 9.66602V4.66602H7.99935V9.72602C7.99935 10.0927 8.66602 10.0927 8.66602 9.72602V3.99935C8.66602 3.26602 8.06602 2.66602 7.33268 2.66602C6.59935 2.66602 5.99935 3.26602 5.99935 3.99935L5.99935 10.9993C5.99935 12.286 7.04602 13.3327 8.33268 13.3327C9.61935 13.3327 10.666 12.286 10.666 10.9993V4.66602H11.9993V10.9993C11.9993 13.026 10.3593 14.666 8.33268 14.666Z" fill="black"/>
</svg>
