<svg width="30" height="22" viewBox="0 0 30 22" fill="none" xmlns="http://www.w3.org/2000/svg">
<path d="M25.6577 2.73267C24.5646 0.910891 22.5606 0 20.3745 0H9.4438C7.25766 0 5.2537 0.910891 4.16063 2.73267C-0.0294671 9.10891 -0.940358 18.7644 1.97449 20.7683C4.88935 22.7723 11.4478 14.0277 14.9091 14.0277C18.3705 14.0277 24.7468 22.7723 27.8438 20.7683C30.7587 18.7644 29.8478 9.10891 25.6577 2.73267ZM11.2656 9.10891H9.4438V10.9307H7.62202V9.10891H5.80024V7.28713H7.62202V5.46535H9.4438V7.28713H11.2656V9.10891ZM21.1032 10.0198C21.1032 10.9307 20.3745 11.6594 19.4636 11.6594C18.5527 11.6594 17.824 10.9307 17.824 10.0198C17.824 9.10891 18.5527 8.3802 19.4636 8.3802C20.3745 8.3802 21.1032 9.10891 21.1032 10.0198ZM24.5646 6.37624C24.5646 7.28713 23.8359 8.01584 22.925 8.01584C22.0141 8.01584 21.2854 7.28713 21.2854 6.37624C21.2854 5.46535 22.0141 4.73663 22.925 4.73663C23.8359 4.73663 24.5646 5.46535 24.5646 6.37624Z" fill="#5E81F4"/>
</svg>
