<svg width="74" height="50" viewBox="0 0 74 50" fill="none" xmlns="http://www.w3.org/2000/svg">
<rect width="74" height="50" rx="16" fill="#FF808B"/>
<g clip-path="url(#clip0_13026_13967)">
<path d="M48.8454 26.5C49.0329 27.8005 49.1559 29.5795 48.5724 30.2605C47.6079 31.387 41.5014 31.387 41.5014 29.134C41.5014 28 42.5064 27.256 41.5419 26.1295C40.5939 25.0225 38.8929 25.0045 37.0014 25.003C35.1099 25.0015 33.4104 25.021 32.4609 26.1295C31.4964 27.256 32.5014 28 32.5014 29.134C32.5014 31.3855 26.3949 31.3855 25.4304 30.2605C24.8469 29.5795 24.9699 27.8005 25.1574 26.5C25.3014 25.6315 25.6659 24.6955 26.8344 23.5C28.5864 21.865 31.2369 20.53 36.9084 20.5H37.0974C42.7689 20.5285 45.4194 21.865 47.1714 23.5C48.3384 24.6955 48.7044 25.6315 48.8484 26.5H48.8454Z" fill="white"/>
</g>
<defs>
<clipPath id="clip0_13026_13967">
<rect width="24" height="24" fill="white" transform="translate(25 13)"/>
</clipPath>
</defs>
</svg>
