<svg width="50" height="50" viewBox="0 0 50 50" fill="none" xmlns="http://www.w3.org/2000/svg">
<rect width="50" height="50" rx="16" fill="#F4BE5E"/>
<circle cx="25" cy="25" r="25" fill="#F4BE5E"/>
<path d="M22 17.5H20.5C20.1022 17.5 19.7206 17.658 19.4393 17.9393C19.158 18.2206 19 18.6022 19 19V31C19 31.3978 19.158 31.7794 19.4393 32.0607C19.7206 32.342 20.1022 32.5 20.5 32.5H22C22.3978 32.5 22.7794 32.342 23.0607 32.0607C23.342 31.7794 23.5 31.3978 23.5 31V19C23.5 18.6022 23.342 18.2206 23.0607 17.9393C22.7794 17.658 22.3978 17.5 22 17.5ZM29.5 17.5H28C27.6022 17.5 27.2206 17.658 26.9393 17.9393C26.658 18.2206 26.5 18.6022 26.5 19V31C26.5 31.3978 26.658 31.7794 26.9393 32.0607C27.2206 32.342 27.6022 32.5 28 32.5H29.5C29.8978 32.5 30.2794 32.342 30.5607 32.0607C30.842 31.7794 31 31.3978 31 31V19C31 18.6022 30.842 18.2206 30.5607 17.9393C30.2794 17.658 29.8978 17.5 29.5 17.5Z" fill="white"/>
</svg>
