<svg width="24" height="24" viewBox="0 0 24 24" fill="none" xmlns="http://www.w3.org/2000/svg">
<path d="M20.781 3.21959C20.8508 3.28926 20.9063 3.37202 20.9441 3.46314C20.9819 3.55426 21.0013 3.65194 21.0013 3.75059C21.0013 3.84924 20.9819 3.94692 20.9441 4.03804C20.9063 4.12916 20.8508 4.21192 20.781 4.28159L16.0605 9.00059H18.7545C18.9534 9.00059 19.1442 9.07961 19.2848 9.22026C19.4255 9.36091 19.5045 9.55168 19.5045 9.75059C19.5045 9.9495 19.4255 10.1403 19.2848 10.2809C19.1442 10.4216 18.9534 10.5006 18.7545 10.5006H14.25C14.0511 10.5006 13.8603 10.4216 13.7197 10.2809C13.579 10.1403 13.5 9.9495 13.5 9.75059V5.25059C13.5 5.05168 13.579 4.86091 13.7197 4.72026C13.8603 4.57961 14.0511 4.50059 14.25 4.50059C14.4489 4.50059 14.6397 4.57961 14.7803 4.72026C14.921 4.86091 15 5.05168 15 5.25059V7.94009L19.7205 3.21959C19.8611 3.07899 20.0519 3 20.2507 3C20.4496 3 20.6404 3.07899 20.781 3.21959Z" fill="white"/>
<path d="M5.35187 3.83761L6.29477 3.36011C7.17741 2.91267 8.26782 3.2493 8.84263 4.14583L9.9859 5.93076C10.4846 6.70874 10.4676 7.71681 9.94512 8.42217L8.49007 10.3849C8.78203 11.3807 9.29822 12.3257 10.0386 13.2198C10.745 14.086 11.6125 14.8059 12.5898 15.3367L14.5757 14.297C15.3291 13.9034 16.2575 14.0799 16.8819 14.7361L18.3343 16.2638C19.0593 17.026 19.1688 18.2154 18.5904 19.0443L17.9701 19.9347C17.3519 20.8196 16.3221 21.2655 15.265 21.1031C12.7714 20.7213 10.2013 18.8417 7.55671 15.4665C4.90909 12.0858 3.64527 9.06644 3.76385 6.40822C3.81361 5.28944 4.41859 4.31283 5.3525 3.83843L5.35187 3.83761Z" fill="white"/>
</svg>
