<svg width="26" height="30" viewBox="0 0 26 30" fill="none" xmlns="http://www.w3.org/2000/svg">
<g clip-path="url(#clip0_13240_11688)">
<path d="M22.8312 3.73525H16.9084C16.3133 2.0916 14.7547 0.901367 12.9126 0.901367C11.0706 0.901367 9.51197 2.0916 8.91686 3.73525H2.99404C1.4354 3.73525 0.160156 5.0105 0.160156 6.56913V26.4063C0.160156 27.965 1.4354 29.2402 2.99404 29.2402H22.8312C24.3899 29.2402 25.6651 27.965 25.6651 26.4063V6.56913C25.6651 5.0105 24.3899 3.73525 22.8312 3.73525ZM10.4897 18.5565C11.0423 19.1091 11.0423 20.0017 10.4897 20.5543C9.93705 21.107 9.03021 21.107 8.4776 20.5543L5.40284 17.4796C5.27148 17.3485 5.16727 17.1928 5.09617 17.0214C5.02506 16.85 4.98846 16.6662 4.98846 16.4806C4.98846 16.2951 5.02506 16.1113 5.09617 15.9399C5.16727 15.7685 5.27148 15.6128 5.40284 15.4817L8.4776 12.4069C9.03021 11.8543 9.93705 11.8543 10.4897 12.4069C11.0423 12.9595 11.0423 13.8522 10.4897 14.4048L8.42093 16.4877L10.4897 18.5565ZM12.9126 5.50643C12.3317 5.50643 11.8499 5.02467 11.8499 4.44372C11.8499 3.86278 12.3317 3.38102 12.9126 3.38102C13.4936 3.38102 13.9753 3.86278 13.9753 4.44372C13.9753 5.02467 13.4936 5.50643 12.9126 5.50643ZM20.4083 17.4938L17.3335 20.5685C16.7809 21.1211 15.874 21.1211 15.3214 20.5685C15.1901 20.4374 15.0859 20.2817 15.0148 20.1103C14.9437 19.9389 14.9071 19.7551 14.9071 19.5696C14.9071 19.384 14.9437 19.2002 15.0148 19.0288C15.0859 18.8574 15.1901 18.7017 15.3214 18.5706L17.4043 16.4877L15.3214 14.4048C15.1901 14.2737 15.0859 14.118 15.0148 13.9466C14.9437 13.7752 14.9071 13.5915 14.9071 13.4059C14.9071 13.2203 14.9437 13.0366 15.0148 12.8651C15.0859 12.6937 15.1901 12.538 15.3214 12.4069C15.874 11.8543 16.7809 11.8543 17.3335 12.4069L20.4083 15.4817C20.9609 16.0343 20.9609 16.9411 20.4083 17.4938Z" fill="#5E81F4"/>
</g>
<defs>
<clipPath id="clip0_13240_11688">
<rect width="25.5049" height="28.3388" fill="white" transform="translate(0.160156 0.901367)"/>
</clipPath>
</defs>
</svg>
