<svg width="51" height="50" viewBox="0 0 51 50" fill="none" xmlns="http://www.w3.org/2000/svg">
<rect x="0.5" width="50" height="50" rx="12" fill="#F5F5F5"/>
<path d="M25.5 34.875C24.9808 34.875 24.4733 35.029 24.0416 35.3174C23.61 35.6058 23.2735 36.0158 23.0748 36.4955C22.8761 36.9751 22.8242 37.5029 22.9254 38.0121C23.0267 38.5213 23.2767 38.989 23.6439 39.3562C24.011 39.7233 24.4787 39.9733 24.9879 40.0746C25.4971 40.1758 26.0249 40.1239 26.5046 39.9252C26.9842 39.7265 27.3942 39.3901 27.6826 38.9584C27.9711 38.5267 28.125 38.0192 28.125 37.5C28.125 36.8038 27.8485 36.1361 27.3562 35.6438C26.8639 35.1516 26.1962 34.875 25.5 34.875ZM25.5 27.875C24.9808 27.875 24.4733 28.029 24.0416 28.3174C23.61 28.6058 23.2735 29.0158 23.0748 29.4955C22.8761 29.9751 22.8242 30.5029 22.9254 31.0121C23.0267 31.5213 23.2767 31.989 23.6439 32.3562C24.011 32.7233 24.4787 32.9733 24.9879 33.0746C25.4971 33.1758 26.0249 33.1239 26.5046 32.9252C26.9842 32.7265 27.3942 32.3901 27.6826 31.9584C27.9711 31.5267 28.125 31.0192 28.125 30.5C28.125 29.8038 27.8485 29.1361 27.3562 28.6438C26.8639 28.1516 26.1962 27.875 25.5 27.875ZM25.5 20.875C24.9808 20.875 24.4733 21.029 24.0416 21.3174C23.61 21.6058 23.2735 22.0158 23.0748 22.4955C22.8761 22.9751 22.8242 23.5029 22.9254 24.0121C23.0267 24.5213 23.2767 24.989 23.6439 25.3562C24.011 25.7233 24.4787 25.9733 24.9879 26.0746C25.4971 26.1758 26.0249 26.1239 26.5046 25.9252C26.9842 25.7265 27.3942 25.3901 27.6826 24.9584C27.9711 24.5267 28.125 24.0192 28.125 23.5C28.125 22.8038 27.8485 22.1361 27.3562 21.6438C26.8639 21.1516 26.1962 20.875 25.5 20.875ZM25.5 13.875C24.9808 13.875 24.4733 14.029 24.0416 14.3174C23.61 14.6058 23.2735 15.0158 23.0748 15.4955C22.8761 15.9751 22.8242 16.5029 22.9254 17.0121C23.0267 17.5213 23.2767 17.989 23.6439 18.3562C24.011 18.7233 24.4787 18.9733 24.9879 19.0746C25.4971 19.1758 26.0249 19.1239 26.5046 18.9252C26.9842 18.7265 27.3942 18.3901 27.6826 17.9584C27.9711 17.5267 28.125 17.0192 28.125 16.5C28.125 15.8038 27.8485 15.1361 27.3562 14.6438C26.8639 14.1516 26.1962 13.875 25.5 13.875ZM32.5 27.875C31.9809 27.875 31.4733 28.029 31.0417 28.3174C30.61 28.6058 30.2735 29.0158 30.0748 29.4955C29.8762 29.9751 29.8242 30.5029 29.9255 31.0121C30.0267 31.5213 30.2768 31.989 30.6439 32.3562C31.011 32.7233 31.4787 32.9733 31.9879 33.0746C32.4971 33.1758 33.0249 33.1239 33.5046 32.9252C33.9842 32.7265 34.3942 32.3901 34.6826 31.9584C34.9711 31.5267 35.125 31.0192 35.125 30.5C35.125 29.8038 34.8485 29.1361 34.3562 28.6438C33.8639 28.1516 33.1962 27.875 32.5 27.875ZM32.5 20.875C31.9809 20.875 31.4733 21.029 31.0417 21.3174C30.61 21.6058 30.2735 22.0158 30.0748 22.4955C29.8762 22.9751 29.8242 23.5029 29.9255 24.0121C30.0267 24.5213 30.2768 24.989 30.6439 25.3562C31.011 25.7233 31.4787 25.9733 31.9879 26.0746C32.4971 26.1758 33.0249 26.1239 33.5046 25.9252C33.9842 25.7265 34.3942 25.3901 34.6826 24.9584C34.9711 24.5267 35.125 24.0192 35.125 23.5C35.125 22.8038 34.8485 22.1361 34.3562 21.6438C33.8639 21.1516 33.1962 20.875 32.5 20.875ZM32.5 13.875C31.9809 13.875 31.4733 14.029 31.0417 14.3174C30.61 14.6058 30.2735 15.0158 30.0748 15.4955C29.8762 15.9751 29.8242 16.5029 29.9255 17.0121C30.0267 17.5213 30.2768 17.989 30.6439 18.3562C31.011 18.7233 31.4787 18.9733 31.9879 19.0746C32.4971 19.1758 33.0249 19.1239 33.5046 18.9252C33.9842 18.7265 34.3942 18.3901 34.6826 17.9584C34.9711 17.5267 35.125 17.0192 35.125 16.5C35.125 15.8038 34.8485 15.1361 34.3562 14.6438C33.8639 14.1516 33.1962 13.875 32.5 13.875ZM18.5 27.875C17.9808 27.875 17.4733 28.029 17.0416 28.3174C16.61 28.6058 16.2735 29.0158 16.0748 29.4955C15.8761 29.9751 15.8242 30.5029 15.9254 31.0121C16.0267 31.5213 16.2767 31.989 16.6438 32.3562C17.011 32.7233 17.4787 32.9733 17.9879 33.0746C18.4971 33.1758 19.0249 33.1239 19.5046 32.9252C19.9842 32.7265 20.3942 32.3901 20.6826 31.9584C20.9711 31.5267 21.125 31.0192 21.125 30.5C21.125 29.8038 20.8484 29.1361 20.3562 28.6438C19.8639 28.1516 19.1962 27.875 18.5 27.875ZM18.5 20.875C17.9808 20.875 17.4733 21.029 17.0416 21.3174C16.61 21.6058 16.2735 22.0158 16.0748 22.4955C15.8761 22.9751 15.8242 23.5029 15.9254 24.0121C16.0267 24.5213 16.2767 24.989 16.6438 25.3562C17.011 25.7233 17.4787 25.9733 17.9879 26.0746C18.4971 26.1758 19.0249 26.1239 19.5046 25.9252C19.9842 25.7265 20.3942 25.3901 20.6826 24.9584C20.9711 24.5267 21.125 24.0192 21.125 23.5C21.125 22.8038 20.8484 22.1361 20.3562 21.6438C19.8639 21.1516 19.1962 20.875 18.5 20.875ZM18.5 13.875C17.9808 13.875 17.4733 14.029 17.0416 14.3174C16.61 14.6058 16.2735 15.0158 16.0748 15.4955C15.8761 15.9751 15.8242 16.5029 15.9254 17.0121C16.0267 17.5213 16.2767 17.989 16.6438 18.3562C17.011 18.7233 17.4787 18.9733 17.9879 19.0746C18.4971 19.1758 19.0249 19.1239 19.5046 18.9252C19.9842 18.7265 20.3942 18.3901 20.6826 17.9584C20.9711 17.5267 21.125 17.0192 21.125 16.5C21.125 15.8038 20.8484 15.1361 20.3562 14.6438C19.8639 14.1516 19.1962 13.875 18.5 13.875Z" fill="#1B51E5"/>
</svg>
