<svg width="15" height="15" viewBox="0 0 15 15" fill="none" xmlns="http://www.w3.org/2000/svg">
<path d="M3.535 12.7994C3.44526 12.8774 3.33513 12.9282 3.21752 12.9458C3.09992 12.9635 2.97972 12.9472 2.87106 12.8989C2.76239 12.8506 2.66975 12.7723 2.60403 12.6732C2.5383 12.5741 2.50221 12.4583 2.5 12.3394V10.9375C2.16848 10.9375 1.85054 10.8058 1.61612 10.5714C1.3817 10.337 1.25 10.019 1.25 9.6875V5.3125C1.25 4.98098 1.3817 4.66304 1.61612 4.42862C1.85054 4.1942 2.16848 4.0625 2.5 4.0625H9.375C9.70652 4.0625 10.0245 4.1942 10.2589 4.42862C10.4933 4.66304 10.625 4.98098 10.625 5.3125V9.6875C10.625 10.019 10.4933 10.337 10.2589 10.5714C10.0245 10.8058 9.70652 10.9375 9.375 10.9375H6.25187L3.535 12.7994ZM4.0625 10.8663C4.11945 10.8659 4.17538 10.8511 4.225 10.8231L5.69687 9.79938C5.80163 9.72653 5.92616 9.68749 6.05375 9.6875H8.75C8.91576 9.6875 9.07473 9.62165 9.19194 9.50444C9.30915 9.38723 9.375 9.22826 9.375 9.0625V5.9375C9.375 5.77174 9.30915 5.61277 9.19194 5.49556C9.07473 5.37835 8.91576 5.3125 8.75 5.3125H3.125C2.95924 5.3125 2.80027 5.37835 2.68306 5.49556C2.56585 5.61277 2.5 5.77174 2.5 5.9375V9.0625C2.5 9.4 2.76813 9.67625 3.125 9.6875C3.38125 9.6975 3.56687 9.73938 3.6525 9.82875C3.7325 9.9125 3.73688 10.0538 3.75 10.3225C3.75187 10.3619 3.75187 10.4331 3.75 10.5538C3.75 10.6366 3.78292 10.7161 3.84153 10.7747C3.90013 10.8333 3.97962 10.8663 4.0625 10.8663ZM11.25 7.8225C11.248 7.89957 11.248 7.97668 11.25 8.05375V7.8225C11.2625 7.55375 11.2675 7.4125 11.3475 7.32875C11.4331 7.23938 11.6187 7.1975 11.875 7.1875C12.2319 7.17625 12.5 6.9 12.5 6.5625V3.4375C12.5 3.27174 12.4342 3.11277 12.3169 2.99556C12.1997 2.87835 12.0408 2.8125 11.875 2.8125H6.25C6.08424 2.8125 5.92527 2.87835 5.80806 2.99556C5.69085 3.11277 5.625 3.27174 5.625 3.4375H4.375V2.8125C4.375 2.48098 4.5067 2.16304 4.74112 1.92862C4.97554 1.6942 5.29348 1.5625 5.625 1.5625H12.5C12.8315 1.5625 13.1495 1.6942 13.3839 1.92862C13.6183 2.16304 13.75 2.48098 13.75 2.8125V7.1875C13.75 7.51902 13.6183 7.83696 13.3839 8.07138C13.1495 8.3058 12.8315 8.4375 12.5 8.4375V9.83938C12.4978 9.95827 12.4617 10.0741 12.396 10.1732C12.3302 10.2723 12.2376 10.3506 12.1289 10.3989C12.0203 10.4472 11.9001 10.4635 11.7825 10.4458C11.6649 10.4282 11.5547 10.3774 11.465 10.2994L11.25 10.1519V7.82313V7.8225Z" fill="#5E81F4"/>
</svg>
