<svg width="50" height="50" viewBox="0 0 50 50" fill="none" xmlns="http://www.w3.org/2000/svg">
<rect width="50" height="50" rx="16" fill="#ECD089"/>
<circle cx="25" cy="25" r="25" fill="#ECD089"/>
<g clip-path="url(#clip0_13026_13929)">
<path d="M23.0795 16.3303L18.9091 20.4998H14.125C13.5034 20.4998 13 21.0032 13 21.6248V28.3748C13 28.9959 13.5034 29.4998 14.125 29.4998H18.9091L23.0795 33.6693C23.7841 34.3739 25 33.8789 25 32.8739V17.1257C25 16.1198 23.7831 15.6267 23.0795 16.3303ZM34.6394 24.9998L36.7787 22.8604C37.0741 22.5651 37.0741 22.0861 36.7787 21.7907L35.7091 20.7211C35.4137 20.4257 34.9347 20.4257 34.6394 20.7211L32.5 22.8604L30.3606 20.7211C30.0653 20.4257 29.5863 20.4257 29.2909 20.7211L28.2213 21.7907C27.9259 22.0861 27.9259 22.5651 28.2213 22.8604L30.3606 24.9998L28.2217 27.1387C27.9264 27.434 27.9264 27.9131 28.2217 28.2084L29.2914 29.2781C29.5867 29.5734 30.0658 29.5734 30.3611 29.2781L32.5 27.1392L34.6394 29.2786C34.9347 29.5739 35.4137 29.5739 35.7091 29.2786L36.7787 28.2089C37.0741 27.9136 37.0741 27.4345 36.7787 27.1392L34.6394 24.9998Z" fill="white"/>
</g>
<defs>
<clipPath id="clip0_13026_13929">
<rect width="24" height="24" fill="white" transform="translate(13 13)"/>
</clipPath>
</defs>
</svg>
