<svg width="24" height="24" viewBox="0 0 24 24" fill="none" xmlns="http://www.w3.org/2000/svg">
<path d="M15.7507 3C15.5517 3 15.361 3.07902 15.2203 3.21967C15.0797 3.36032 15.0007 3.55109 15.0007 3.75C15.0007 3.94891 15.0797 4.13968 15.2203 4.28033C15.361 4.42098 15.5517 4.5 15.7507 4.5H18.4402L13.7212 9.2205C13.6495 9.28969 13.5924 9.37244 13.5531 9.46395C13.5138 9.55545 13.4931 9.65386 13.4922 9.75345C13.4914 9.85303 13.5103 9.95179 13.548 10.044C13.5857 10.1361 13.6414 10.2199 13.7119 10.2903C13.7823 10.3607 13.866 10.4164 13.9582 10.4541C14.0504 10.4918 14.1491 10.5108 14.2487 10.5099C14.3483 10.5091 14.4467 10.4884 14.5382 10.4491C14.6297 10.4098 14.7125 10.3526 14.7817 10.281L19.5007 5.5605V8.25C19.5007 8.44891 19.5797 8.63968 19.7203 8.78033C19.861 8.92098 20.0517 9 20.2507 9C20.4496 9 20.6403 8.92098 20.781 8.78033C20.9216 8.63968 21.0007 8.44891 21.0007 8.25V3.75C21.0007 3.55109 20.9216 3.36032 20.781 3.21967C20.6403 3.07902 20.4496 3 20.2507 3H15.7507Z" fill="white"/>
<path d="M5.35187 3.83761L6.29477 3.36011C7.17741 2.91267 8.26782 3.2493 8.84263 4.14583L9.9859 5.93076C10.4846 6.70874 10.4676 7.71681 9.94512 8.42217L8.49007 10.3849C8.78203 11.3807 9.29822 12.3257 10.0386 13.2198C10.745 14.086 11.6125 14.8059 12.5898 15.3367L14.5757 14.297C15.3291 13.9034 16.2575 14.0799 16.8819 14.7361L18.3343 16.2638C19.0593 17.026 19.1688 18.2154 18.5904 19.0443L17.9701 19.9347C17.3519 20.8196 16.3221 21.2655 15.265 21.1031C12.7714 20.7213 10.2013 18.8417 7.55671 15.4665C4.90909 12.0858 3.64527 9.06644 3.76385 6.40822C3.81361 5.28944 4.41859 4.31283 5.3525 3.83843L5.35187 3.83761Z" fill="white"/>
</svg>
