<svg width="29" height="23" viewBox="0 0 29 23" fill="none" xmlns="http://www.w3.org/2000/svg">
<path d="M2.71875 0.625C1.99769 0.625 1.30617 0.911439 0.796303 1.4213C0.286439 1.93117 0 2.62269 0 3.34375V19.6562C0 20.3773 0.286439 21.0688 0.796303 21.5787C1.30617 22.0886 1.99769 22.375 2.71875 22.375H26.2812C27.0023 22.375 27.6938 22.0886 28.2037 21.5787C28.7136 21.0688 29 20.3773 29 19.6562V3.34375C29 2.62269 28.7136 1.93117 28.2037 1.4213C27.6938 0.911439 27.0023 0.625 26.2812 0.625H2.71875Z" fill="#5E81F4"/>
<path d="M5.4375 6.96875C5.4375 6.7284 5.53298 6.49789 5.70293 6.32793C5.87289 6.15798 6.1034 6.0625 6.34375 6.0625H22.6562C22.8966 6.0625 23.1271 6.15798 23.2971 6.32793C23.467 6.49789 23.5625 6.7284 23.5625 6.96875C23.5625 7.2091 23.467 7.43961 23.2971 7.60957C23.1271 7.77952 22.8966 7.875 22.6562 7.875H6.34375C6.1034 7.875 5.87289 7.77952 5.70293 7.60957C5.53298 7.43961 5.4375 7.2091 5.4375 6.96875ZM5.4375 11.5C5.4375 11.2596 5.53298 11.0291 5.70293 10.8592C5.87289 10.6892 6.1034 10.5938 6.34375 10.5938H22.6562C22.8966 10.5938 23.1271 10.6892 23.2971 10.8592C23.467 11.0291 23.5625 11.2596 23.5625 11.5C23.5625 11.7404 23.467 11.9709 23.2971 12.1408C23.1271 12.3108 22.8966 12.4062 22.6562 12.4062H6.34375C6.1034 12.4062 5.87289 12.3108 5.70293 12.1408C5.53298 11.9709 5.4375 11.7404 5.4375 11.5ZM5.4375 16.0312C5.4375 15.7909 5.53298 15.5604 5.70293 15.3904C5.87289 15.2205 6.1034 15.125 6.34375 15.125H17.2188C17.4591 15.125 17.6896 15.2205 17.8596 15.3904C18.0295 15.5604 18.125 15.7909 18.125 16.0312C18.125 16.2716 18.0295 16.5021 17.8596 16.6721C17.6896 16.842 17.4591 16.9375 17.2188 16.9375H6.34375C6.1034 16.9375 5.87289 16.842 5.70293 16.6721C5.53298 16.5021 5.4375 16.2716 5.4375 16.0312Z" fill="white"/>
</svg>
