<svg width="14" height="14" viewBox="0 0 14 14" fill="none" xmlns="http://www.w3.org/2000/svg">
<path d="M11.3914 1.92484H8.59142C8.4795 1.59218 8.26597 1.30304 7.98095 1.09821C7.69593 0.893387 7.3538 0.783203 7.00281 0.783203C6.65183 0.783203 6.3097 0.893387 6.02467 1.09821C5.73965 1.30304 5.52612 1.59218 5.4142 1.92484H2.72309C2.62785 1.91106 2.53078 1.91764 2.43827 1.94414C2.34576 1.97064 2.25992 2.01646 2.18642 2.07856C2.11292 2.14067 2.05343 2.21766 2.01187 2.30445C1.9703 2.39124 1.94762 2.48586 1.94531 2.58206V12.5454C1.94582 12.6322 1.96343 12.7181 1.99712 12.7981C2.03082 12.8781 2.07994 12.9507 2.14169 13.0117C2.20345 13.0728 2.27661 13.121 2.35702 13.1538C2.43742 13.1865 2.52349 13.2031 2.61031 13.2026H11.3914C11.4782 13.2031 11.5643 13.1865 11.6447 13.1538C11.7251 13.121 11.7983 13.0728 11.86 13.0117C11.9218 12.9507 11.9709 12.8781 12.0046 12.7981C12.0383 12.7181 12.0559 12.6322 12.0564 12.5454V2.58206C12.0559 2.49524 12.0383 2.40937 12.0046 2.32936C11.9709 2.24934 11.9218 2.17675 11.86 2.11572C11.7983 2.05469 11.7251 2.00642 11.6447 1.97367C11.5643 1.94092 11.4782 1.92433 11.3914 1.92484ZM4.39142 3.09151C4.39142 2.98837 4.4324 2.88945 4.50533 2.81652C4.57826 2.74359 4.67717 2.70262 4.78031 2.70262H6.11809V2.45762C6.11809 2.21885 6.21294 1.98986 6.38178 1.82102C6.55061 1.65219 6.7796 1.55734 7.01837 1.55734C7.25714 1.55734 7.48612 1.65219 7.65496 1.82102C7.82379 1.98986 7.91865 2.21885 7.91865 2.45762V2.72206H9.25642C9.35956 2.72206 9.45848 2.76303 9.53141 2.83596C9.60434 2.9089 9.64531 3.00781 9.64531 3.11095V3.81095H4.37587L4.39142 3.09151ZM10.0381 6.68095L6.49142 10.2276L4.45365 8.18984C4.35051 8.0867 4.29256 7.94681 4.29256 7.80095C4.29256 7.65509 4.35051 7.5152 4.45365 7.41206C4.55679 7.30892 4.69667 7.25098 4.84253 7.25098C4.9884 7.25098 5.12828 7.30892 5.23142 7.41206L6.4992 8.67984L9.27587 5.90317C9.37901 5.80003 9.5189 5.74209 9.66476 5.74209C9.81062 5.74209 9.95051 5.80003 10.0536 5.90317C10.1568 6.00631 10.2147 6.1462 10.2147 6.29206C10.2147 6.43792 10.1568 6.57781 10.0536 6.68095H10.0381Z" fill="#5E81F4"/>
</svg>
