<svg width="38" height="39" viewBox="0 0 38 39" fill="none" xmlns="http://www.w3.org/2000/svg">
<g clip-path="url(#clip0_13017_11347)">
<rect y="0.5" width="38" height="38" rx="8" fill="white"/>
<rect y="0.5" width="38" height="38" rx="8" fill="#5E81F4" fill-opacity="0.1"/>
<path d="M19 6C16.2311 6 13.5243 6.82109 11.222 8.35943C8.91973 9.89777 7.12532 12.0843 6.06569 14.6424C5.00607 17.2006 4.72882 20.0155 5.26901 22.7313C5.80921 25.447 7.14258 27.9416 9.10051 29.8995C11.0584 31.8574 13.553 33.1908 16.2687 33.731C18.9845 34.2712 21.7994 33.9939 24.3576 32.9343C26.9157 31.8747 29.1022 30.0803 30.6406 27.778C32.1789 25.4757 33 22.7689 33 20C32.9958 16.2883 31.5194 12.7298 28.8948 10.1052C26.2702 7.48059 22.7117 6.00423 19 6ZM26.992 28.926C26.9721 27.6143 26.4377 26.363 25.5039 25.4416C24.5702 24.5202 23.3118 24.0025 22 24H16C14.6882 24.0025 13.4298 24.5202 12.4961 25.4416C11.5623 26.363 11.0279 27.6143 11.008 28.926C9.19457 27.3067 7.91574 25.1749 7.34084 22.8127C6.76594 20.4505 6.92211 17.9693 7.78864 15.6979C8.65518 13.4264 10.1912 11.4717 12.1934 10.0926C14.1955 8.71347 16.5693 7.97503 19.0005 7.97503C21.4317 7.97503 23.8055 8.71347 25.8076 10.0926C27.8098 11.4717 29.3458 13.4264 30.2124 15.6979C31.0789 17.9693 31.2351 20.4505 30.6602 22.8127C30.0853 25.1749 28.8064 27.3067 26.993 28.926H26.992Z" fill="#5E81F4"/>
<path d="M14.2942 21.4119L16.1766 21.8825L16.6472 23.2942L14.2942 24.2354L11.4707 25.6472V27.5295H26.5295V26.1178L26.0589 24.706L22.7648 23.2942L20.8825 22.3531L21.8236 21.8825L23.706 21.4119L23.2354 19.0589L22.7648 17.1766L22.2942 14.8236L20.8825 12.9413C20.255 12.7844 18.8119 12.4707 18.0589 12.4707C17.306 12.4707 16.1766 13.7256 15.706 14.3531L14.2942 21.4119Z" fill="#5E81F4"/>
<path d="M26 24.5469L21.6562 22.4844C21.7708 22.4219 21.9974 22.3568 22.3359 22.2891C22.6745 22.2214 23.0026 22.1615 23.3203 22.1094C23.638 22.0573 23.9349 21.987 24.2109 21.8984C24.487 21.8099 24.6458 21.7031 24.6875 21.5781C24.6562 21.5469 24.6224 21.4974 24.5859 21.4297C24.5495 21.362 24.474 21.2161 24.3594 20.9922C24.2448 20.7682 24.1432 20.5391 24.0547 20.3047C23.9661 20.0703 23.8724 19.7812 23.7734 19.4375C23.6745 19.0938 23.6042 18.7552 23.5625 18.4219C23.5521 18.3073 23.5026 17.9219 23.4141 17.2656C23.3255 16.6094 23.25 16.0312 23.1875 15.5312C23.0729 14.5 22.6224 13.6536 21.8359 12.9922C21.0495 12.3307 20.1042 12 19 12C18.2708 12 17.6016 12.1484 16.9922 12.4453C16.3828 12.7422 15.8854 13.1615 15.5 13.7031C15.1146 14.2448 14.8854 14.8542 14.8125 15.5312C14.7708 15.9062 14.724 16.2812 14.6719 16.6562C14.6198 17.0312 14.5729 17.3776 14.5312 17.6953C14.4896 18.013 14.4583 18.2552 14.4375 18.4219C14.3646 18.9531 14.237 19.4818 14.0547 20.0078C13.8724 20.5339 13.7031 20.9271 13.5469 21.1875L13.3125 21.5781C13.3542 21.7031 13.513 21.8099 13.7891 21.8984C14.0651 21.987 14.362 22.0573 14.6797 22.1094C14.9974 22.1615 15.3255 22.2214 15.6641 22.2891C16.0026 22.3568 16.2292 22.4219 16.3438 22.4844L12 24.5469C11.9688 24.5573 11.9323 24.5703 11.8906 24.5859C11.849 24.6016 11.7708 24.6458 11.6562 24.7188C11.5417 24.7917 11.4401 24.8698 11.3516 24.9531C11.263 25.0365 11.1823 25.1458 11.1094 25.2812C11.0365 25.4167 11 25.5625 11 25.7188V27.0469C11 27.1823 11.026 27.3099 11.0781 27.4297C11.1302 27.5495 11.2005 27.651 11.2891 27.7344C11.3776 27.8177 11.4844 27.8828 11.6094 27.9297C11.7344 27.9766 11.8646 28 12 28H26C26.2812 28 26.5182 27.9089 26.7109 27.7266C26.9036 27.5443 27 27.3177 27 27.0469V25.7188C27 25.2292 26.7031 24.849 26.1094 24.5781C26.0469 24.5573 26.0104 24.5469 26 24.5469ZM12 27V25.7188C12 25.6979 12.0365 25.6615 12.1094 25.6094C12.1823 25.5573 12.2604 25.5156 12.3438 25.4844L12.4219 25.4375L16.7812 23.375C16.9479 23.3021 17.0833 23.1849 17.1875 23.0234C17.2917 22.862 17.3438 22.6823 17.3438 22.4844C17.3542 22.4427 17.3568 22.401 17.3516 22.3594C17.3464 22.3177 17.3385 22.2786 17.3281 22.2422C17.3177 22.2057 17.3047 22.1667 17.2891 22.125C17.2734 22.0833 17.2552 22.0443 17.2344 22.0078C17.2135 21.9714 17.1927 21.9375 17.1719 21.9062C17.151 21.875 17.125 21.8438 17.0938 21.8125C17.0625 21.7812 17.0312 21.7526 17 21.7266L16.9062 21.6484L16.7969 21.5781C16.5573 21.4635 16.0625 21.3385 15.3125 21.2031C15.0729 21.1615 14.8698 21.125 14.7031 21.0938C15.0781 20.2396 15.3177 19.3854 15.4219 18.5312C15.4427 18.3542 15.4792 18.0729 15.5312 17.6875C15.5833 17.3438 15.6302 17.0104 15.6719 16.6875C15.7135 16.3646 15.7552 16.0208 15.7969 15.6562C15.8906 14.875 16.2344 14.237 16.8281 13.7422C17.4219 13.2474 18.1458 13 19 13C19.8542 13 20.5781 13.2474 21.1719 13.7422C21.7656 14.237 22.1094 14.875 22.2031 15.6562C22.2656 16.25 22.3542 16.9271 22.4688 17.6875C22.4792 17.7812 22.4896 17.8594 22.5 17.9219C22.5104 17.9844 22.5208 18.0547 22.5312 18.1328C22.5417 18.2109 22.5495 18.2839 22.5547 18.3516C22.5599 18.4193 22.5677 18.4792 22.5781 18.5312C22.6823 19.3854 22.9219 20.2396 23.2969 21.0938C23.1302 21.125 22.9271 21.1615 22.6875 21.2031C21.9375 21.3385 21.4427 21.4635 21.2031 21.5781C21.0885 21.6406 20.9896 21.7188 20.9062 21.8125C20.8229 21.9062 20.7578 22.0104 20.7109 22.125C20.6641 22.2396 20.6458 22.3594 20.6562 22.4844C20.6562 22.5469 20.6615 22.6094 20.6719 22.6719C20.6823 22.7344 20.6979 22.7943 20.7188 22.8516C20.7396 22.9089 20.7682 22.9635 20.8047 23.0156C20.8411 23.0677 20.8802 23.1172 20.9219 23.1641C20.9635 23.2109 21.0104 23.2526 21.0625 23.2891C21.1146 23.3255 21.1667 23.3542 21.2188 23.375L25.5781 25.4531L25.6562 25.4844C25.7292 25.5156 25.8021 25.5547 25.875 25.6016C25.9479 25.6484 25.9896 25.6875 26 25.7188V27H12Z" fill="#5E81F4"/>
</g>
<defs>
<clipPath id="clip0_13017_11347">
<rect width="38" height="38" fill="white" transform="translate(0 0.5)"/>
</clipPath>
</defs>
</svg>
