<svg width="32" height="32" viewBox="0 0 32 32" fill="none" xmlns="http://www.w3.org/2000/svg">
<rect width="32" height="32" rx="8" fill="#5E81F4"/>
<path d="M25.1564 15.443L11.4064 8.56796C11.2986 8.51406 11.1775 8.49247 11.0578 8.50578C10.938 8.51908 10.8247 8.56672 10.7314 8.64296C10.6423 8.71764 10.5757 8.8157 10.5393 8.92611C10.5029 9.03652 10.498 9.15491 10.5251 9.26796L12.1814 15.3742H19.2501V16.6242H12.1814L10.5001 22.7117C10.4746 22.8061 10.4717 22.9052 10.4914 23.001C10.5112 23.0967 10.5532 23.1865 10.614 23.2631C10.6748 23.3397 10.7527 23.401 10.8414 23.442C10.9302 23.483 11.0274 23.5026 11.1251 23.4992C11.2229 23.4986 11.3193 23.4751 11.4064 23.4305L25.1564 16.5555C25.2587 16.503 25.3447 16.4233 25.4046 16.3252C25.4646 16.227 25.4964 16.1142 25.4964 15.9992C25.4964 15.8842 25.4646 15.7714 25.4046 15.6732C25.3447 15.5751 25.2587 15.4954 25.1564 15.443Z" fill="white"/>
</svg>
