<svg width="30" height="30" viewBox="0 0 30 30" fill="none" xmlns="http://www.w3.org/2000/svg">
<path d="M5.26123 5.84954C4.9192 5.86829 4.58377 6.0271 4.34814 6.31585C2.41314 8.68585 1.25 11.7087 1.25 14.9999C1.25 18.2912 2.41314 21.314 4.34814 23.684C4.82064 24.2615 5.68832 24.314 6.21582 23.7866C6.66457 23.3378 6.70865 22.6213 6.30615 22.1313C4.7099 20.1875 3.75 17.7037 3.75 14.9999C3.75 12.2962 4.7099 9.81352 6.30615 7.87102C6.70865 7.38102 6.66457 6.6645 6.21582 6.21575C5.95207 5.952 5.60326 5.83079 5.26123 5.84954ZM24.7388 5.84954C24.3967 5.83079 24.0479 5.952 23.7842 6.21575C23.3354 6.6645 23.2913 7.38102 23.6938 7.87102C25.2901 9.81352 26.25 12.2962 26.25 14.9999C26.25 17.7037 25.2901 20.1863 23.6938 22.1288C23.2913 22.6188 23.3354 23.3354 23.7842 23.7841C24.3117 24.3116 25.1806 24.2628 25.6519 23.684C27.5869 21.3153 28.75 18.2912 28.75 14.9999C28.75 11.7087 27.5869 8.68585 25.6519 6.31585C25.4162 6.0271 25.0808 5.86829 24.7388 5.84954ZM8.80371 9.40423C8.45699 9.4236 8.12102 9.58507 7.90039 9.89007C6.86289 11.3288 6.25 13.0949 6.25 14.9999C6.25 16.9049 6.86289 18.671 7.90039 20.1098C8.34164 20.7198 9.24045 20.7595 9.77295 20.227L9.77783 20.2221C10.2166 19.7833 10.2489 19.1024 9.89014 18.5961C9.17264 17.5786 8.75 16.3374 8.75 14.9999C8.75 13.6624 9.17264 12.4212 9.89014 11.4037C10.2476 10.8962 10.2166 10.2165 9.77783 9.77776L9.77295 9.77288C9.5067 9.50663 9.15043 9.38485 8.80371 9.40423ZM21.1963 9.40423C20.8496 9.38485 20.4933 9.50663 20.2271 9.77288L20.2222 9.77776C19.7834 10.2165 19.7511 10.8975 20.1099 11.4037C20.8274 12.4212 21.25 13.6624 21.25 14.9999C21.25 16.3374 20.8274 17.5786 20.1099 18.5961C19.7524 19.1036 19.7834 19.7833 20.2222 20.2221L20.2271 20.227C20.7596 20.7595 21.6596 20.7198 22.0996 20.1098C23.1384 18.6723 23.75 16.9049 23.75 14.9999C23.75 13.0949 23.1371 11.3288 22.0996 9.89007C21.879 9.58507 21.543 9.4236 21.1963 9.40423ZM15 11.2499C14.0054 11.2499 13.0516 11.645 12.3483 12.3483C11.6451 13.0515 11.25 14.0054 11.25 14.9999C11.25 15.9945 11.6451 16.9483 12.3483 17.6516C13.0516 18.3548 14.0054 18.7499 15 18.7499C15.9946 18.7499 16.9484 18.3548 17.6517 17.6516C18.3549 16.9483 18.75 15.9945 18.75 14.9999C18.75 14.0054 18.3549 13.0515 17.6517 12.3483C16.9484 11.645 15.9946 11.2499 15 11.2499Z" fill="#5E81F4"/>
</svg>
