<svg width="16" height="16" viewBox="0 0 16 16" fill="none" xmlns="http://www.w3.org/2000/svg">
<path d="M6 7.5C6.26522 7.5 6.51957 7.39464 6.70711 7.20711C6.89464 7.01957 7 6.76522 7 6.5C7 6.23478 6.89464 5.98043 6.70711 5.79289C6.51957 5.60536 6.26522 5.5 6 5.5C5.73478 5.5 5.48043 5.60536 5.29289 5.79289C5.10536 5.98043 5 6.23478 5 6.5C5 6.76522 5.10536 7.01957 5.29289 7.20711C5.48043 7.39464 5.73478 7.5 6 7.5ZM11 6.5C11 6.76522 10.8946 7.01957 10.7071 7.20711C10.5196 7.39464 10.2652 7.5 10 7.5C9.73478 7.5 9.48043 7.39464 9.29289 7.20711C9.10536 7.01957 9 6.76522 9 6.5C9 6.23478 9.10536 5.98043 9.29289 5.79289C9.48043 5.60536 9.73478 5.5 10 5.5C10.2652 5.5 10.5196 5.60536 10.7071 5.79289C10.8946 5.98043 11 6.23478 11 6.5ZM4.7765 9.553C4.89448 9.49401 5.031 9.48403 5.1563 9.52524C5.28161 9.56644 5.38556 9.6555 5.4455 9.773L5.447 9.776L5.464 9.805C5.4815 9.8335 5.5105 9.878 5.5525 9.9345C5.637 10.047 5.7725 10.2025 5.9685 10.3595C6.355 10.6685 6.9965 11 8 11C9.0035 11 9.645 10.6685 10.0315 10.36C10.228 10.2025 10.3635 10.047 10.4475 9.9345C10.4857 9.88378 10.521 9.83085 10.553 9.776L10.555 9.7725C10.6153 9.65504 10.7197 9.56621 10.8452 9.5254C10.9708 9.48459 11.1074 9.49511 11.2253 9.55466C11.3431 9.61421 11.4326 9.71796 11.4743 9.84327C11.5159 9.96858 11.5063 10.1053 11.4475 10.2235V10.224L11.4465 10.225V10.226L11.4445 10.229L11.4405 10.2365C11.425 10.2663 11.4083 10.2955 11.3905 10.324C11.3466 10.3964 11.2991 10.4665 11.248 10.534C11.0769 10.7602 10.878 10.964 10.656 11.1405C10.105 11.5815 9.2465 12 8 12C6.7535 12 5.895 11.5815 5.344 11.14C5.12224 10.9638 4.92352 10.7603 4.7525 10.5345C4.6815 10.4396 4.61702 10.3401 4.5595 10.2365L4.5555 10.229L4.554 10.226L4.5535 10.2245L4.553 10.2235C4.49379 10.1049 4.48407 9.96772 4.52598 9.84199C4.56789 9.71627 4.65799 9.61232 4.7765 9.553ZM8 1C4.134 1 1 4.134 1 8C1 11.866 4.134 15 8 15C11.866 15 15 11.866 15 8C15 4.134 11.866 1 8 1ZM2 8C2 4.6865 4.6865 2 8 2C11.3135 2 14 4.6865 14 8C14 11.3135 11.3135 14 8 14C4.6865 14 2 11.3135 2 8Z" fill="black"/>
</svg>
