<svg width="18" height="16" viewBox="0 0 18 16" fill="none" xmlns="http://www.w3.org/2000/svg">
<path d="M9 0.445312L8.49023 1.60547L6.66211 5.70117L0.931641 6.31641L1.88086 7.16016L5.20312 10.166L4.00781 15.791L5.11523 15.1582L9 12.9082L12.8848 15.1582L13.9922 15.791L12.7969 10.166L16.1191 7.16016L17.0684 6.31641L11.3379 5.70117L9.50977 1.60547L9 0.445312ZM9 3.20508L10.4414 6.45703L10.582 6.75586L14.4316 7.16016L11.5488 9.76172L12.3574 13.541L9.28125 11.7832L9 11.6074L8.71875 11.7832L5.64258 13.541L6.45117 9.76172L3.56836 7.16016L7.41797 6.75586L7.55859 6.45703L9 3.20508Z" fill="#8181A5"/>
</svg>
